<svg xmlns="http://www.w3.org/2000/svg" aria-hidden="true" style="position:absolute;width:0;height:0;overflow:hidden">
  <defs>
    <symbol id="icon-facebook" viewBox="0 0 32 32">
      <path d="M21.33 6.119h2.921V1.475c-.504-.063-2.237-.206-4.256-.206-4.212 0-7.097 2.418-7.097 6.862v4.09H8.25v5.191h4.648v13.063h5.699V17.414h4.46l.708-5.191h-5.169V8.646c.001-1.5.444-2.528 2.735-2.528z"/>
    </symbol>
    <symbol id="icon-instagram" viewBox="0 0 32 32">
      <path d="M31.969 9.857c-.075-1.552-.35-2.619-.744-3.543a7.1 7.1 0 0 0-1.851-2.59 7.976 7.976 0 0 0-2.832-1.683c-1.019-.359-2.182-.61-3.882-.679-1.713-.074-2.257-.091-6.601-.091s-4.888.017-6.595.086c-1.7.068-2.869.32-3.882.679a7.912 7.912 0 0 0-2.838 1.689A7.155 7.155 0 0 0 .9 6.31C.506 7.24.231 8.301.156 9.853c-.081 1.563-.1 2.06-.1 6.025s.019 4.462.094 6.019c.075 1.552.35 2.619.744 3.543a7.18 7.18 0 0 0 1.85 2.59 7.976 7.976 0 0 0 2.832 1.683c1.019.36 2.182.611 3.882.679 1.706.069 2.25.086 6.595.086s4.888-.017 6.595-.086c1.7-.068 2.869-.319 3.882-.679 2.151-.759 3.851-2.311 4.682-4.273.394-.93.669-1.991.744-3.543.075-1.558.094-2.054.094-6.019s-.006-4.462-.081-6.019zm-2.882 11.924c-.069 1.426-.331 2.197-.55 2.71-.538 1.272-1.644 2.282-3.038 2.773-.563.2-1.413.439-2.969.502-1.688.069-2.194.086-6.464.086s-4.782-.017-6.464-.086c-1.563-.063-2.407-.302-2.969-.502a4.996 4.996 0 0 1-1.838-1.09 4.526 4.526 0 0 1-1.194-1.677c-.219-.513-.481-1.289-.55-2.71-.075-1.54-.094-2.003-.094-5.9s.019-4.365.094-5.899c.069-1.426.331-2.197.55-2.71a4.431 4.431 0 0 1 1.2-1.678 5.045 5.045 0 0 1 1.838-1.09c.563-.2 1.413-.439 2.969-.502 1.688-.068 2.194-.086 6.464-.086 4.276 0 4.782.017 6.464.086 1.563.063 2.407.302 2.969.502a4.996 4.996 0 0 1 1.838 1.09 4.521 4.521 0 0 1 1.194 1.678c.219.513.481 1.289.55 2.71.075 1.54.094 2.002.094 5.899s-.019 4.353-.094 5.894z"/>
      <path d="M16.059 8.373c-4.538 0-8.22 3.36-8.22 7.503s3.682 7.503 8.22 7.503c4.539 0 8.22-3.36 8.22-7.503s-3.682-7.503-8.22-7.503zm0 12.37c-2.944 0-5.332-2.179-5.332-4.867s2.388-4.867 5.332-4.867 5.332 2.179 5.332 4.867-2.388 4.867-5.332 4.867zM26.524 8.077c0 .967-.859 1.752-1.919 1.752s-1.919-.784-1.919-1.752.859-1.752 1.919-1.752 1.919.784 1.919 1.752z"/>
    </symbol>
    <symbol id="icon-linkedin" viewBox="0 0 32 32">
      <path d="M31.992 30.476v-.001H32V19.764c0-5.24-1.236-9.277-7.948-9.277-3.227 0-5.392 1.616-6.276 3.148h-.093v-2.659h-6.364v19.499h6.627V20.82c0-2.542.528-5 3.977-5 3.399 0 3.449 2.901 3.449 5.163v9.493h6.62zM.528 10.977h6.635v19.499H.528V10.977zM3.843 1.27C1.722 1.27 0 2.841 0 4.777s1.721 3.54 3.843 3.54c2.121 0 3.843-1.604 3.843-3.54C7.685 2.841 5.963 1.27 3.843 1.27z"/>
    </symbol>
    <symbol id="icon-twitter" viewBox="0 0 32 32">
      <path d="M32 6.817c-1.19.476-2.458.792-3.78.946 1.36-.741 2.398-1.906 2.886-3.309a13.895 13.895 0 0 1-4.16 1.449c-1.204-1.17-2.92-1.895-4.792-1.895-3.632 0-6.556 2.691-6.556 5.989 0 .475.044.931.152 1.365-5.454-.243-10.28-2.629-13.522-6.263a5.632 5.632 0 0 0-.898 3.027c0 2.074 1.17 3.912 2.914 4.976a6.97 6.97 0 0 1-2.964-.737v.066c0 2.91 2.274 5.327 5.256 5.883a7.153 7.153 0 0 1-1.72.197c-.42 0-.844-.022-1.242-.102.85 2.371 3.262 4.114 6.13 4.171-2.232 1.594-5.066 2.554-8.134 2.554-.538 0-1.054-.022-1.57-.082 2.906 1.71 6.35 2.687 10.064 2.687 12.072 0 18.672-9.127 18.672-17.038 0-.265-.01-.52-.024-.774A12.517 12.517 0 0 0 32 6.818z"/>
    </symbol>
    <symbol id="icon-logo" viewBox="0 0 39 32">
<path d="M22.371 9.64l-0.749-0.571c-0.097-0.079-0.223-0.127-0.36-0.127-0.177 0-0.335 0.080-0.44 0.206l-0.001 0.001-10.36 11.897 0.16 0.177 2.566-2.366c-0.146-0.060-0.247-0.201-0.247-0.366 0-0.218 0.177-0.394 0.394-0.394 0.002 0 0.005 0 0.007 0h-0c0 0 0 0 0 0 0.174 0 0.321 0.114 0.371 0.272l0.001 0.003 3.383-3.137c0.050-0.040 0.113-0.065 0.183-0.065s0.133 0.024 0.183 0.065l-0.001-0 0.171 0.126c0.046 0.033 0.104 0.053 0.166 0.053 0.086 0 0.164-0.038 0.216-0.099l0-0 4.423-4.96c0.081-0.085 0.131-0.2 0.131-0.328 0-0.159-0.078-0.3-0.198-0.386l-0.001-0.001z"></path>
<path d="M27.24 12.989c-2.14 1.539-4.64 2.746-7.335 3.477l-0.162 0.037c-2.401 0.638-5.193 1.072-8.063 1.208l-0.092 0.003c0.055 0.406 0.155 0.805 0.297 1.189 1.554 1.406 13.257-0.994 15.543-3.771 0.486-0.577-0.189-2.143-0.189-2.143zM13.343 18.857c-0.215 0-0.389-0.174-0.389-0.389s0.174-0.389 0.389-0.389c0.215 0 0.389 0.174 0.389 0.389v0c0 0.002 0 0.004 0 0.006 0 0.211-0.171 0.383-0.383 0.383-0.002 0-0.004-0-0.006-0h0zM2.286 12.166l0.091-0.394 1.486 0.337c0.123 0.226 0.198 0.475 0.223 0.731 0.029 0.271 0.011 0.546-0.051 0.811-0.079 0.386-0.252 0.722-0.493 0.997l0.002-0.002c-0.232 0.261-0.529 0.459-0.866 0.568l-0.014 0.004c-0.184 0.059-0.395 0.093-0.615 0.093-0.165 0-0.326-0.019-0.48-0.055l0.014 0.003c-0.373-0.082-0.697-0.259-0.955-0.504l0.001 0.001c-0.256-0.236-0.445-0.54-0.54-0.884l-0.003-0.013c-0.049-0.171-0.077-0.368-0.077-0.571s0.028-0.4 0.081-0.587l-0.004 0.015c0.062-0.28 0.171-0.547 0.326-0.789 0.147-0.22 0.339-0.399 0.563-0.527l0.008-0.004 0.206 0.314c-0.391 0.243-0.669 0.637-0.753 1.099l-0.002 0.010c-0.031 0.125-0.049 0.268-0.049 0.416 0 0.171 0.024 0.337 0.069 0.494l-0.003-0.013c0.077 0.278 0.229 0.529 0.44 0.726 0.217 0.21 0.488 0.354 0.783 0.417 0.286 0.080 0.589 0.080 0.874 0 0.274-0.090 0.52-0.25 0.714-0.463 0.2-0.23 0.337-0.507 0.4-0.806 0.036-0.132 0.056-0.284 0.056-0.441 0-0.234-0.046-0.458-0.129-0.662l0.004 0.012-1.309-0.331zM5.52 8.571l-1.331 1.777 0.571 1.023-0.263 0.354-2.114-3.857 0.246-0.337 4.303 0.926-0.269 0.354-1.143-0.24zM5.143 8.48l-2.286-0.514 1.143 2.051 1.143-1.537zM5.143 4.886l0.343-0.257 2.177 2.914 1.794-1.343 0.217 0.291-2.131 1.594-2.4-3.2zM8.743 2.503l0.383-0.171 1.509 3.303 2.040-0.926 0.149 0.331-2.423 1.103-1.657-3.64zM16.274 3.817l0.086 0.36-2.754 0.646-0.914-3.897 2.674-0.623 0.080 0.354-2.286 0.531 0.326 1.383 2.011-0.474 0.086 0.354-2.017 0.469 0.343 1.446 2.366-0.549zM20.2 3.96l-0.954-1.257c-0.107 0.006-0.214 0.006-0.32 0l-1.074 0.034 0.040 1.269h-0.423l-0.131-4 1.52-0.006c0.050-0.005 0.108-0.008 0.166-0.008 0.392 0 0.755 0.125 1.051 0.337l-0.005-0.004c0.287 0.232 0.469 0.585 0.469 0.979 0 0.005-0 0.011-0 0.016v-0.001c0.017 0.282-0.057 0.563-0.211 0.8-0.163 0.224-0.39 0.394-0.653 0.483l-0.009 0.003 1 1.337-0.463 0.017zM19.8 2.080c0.181-0.167 0.295-0.405 0.295-0.67 0-0.028-0.001-0.055-0.004-0.082l0 0.004c0-0.006 0-0.013 0-0.019 0-0.286-0.131-0.542-0.336-0.711l-0.002-0.001c-0.218-0.15-0.488-0.239-0.779-0.239-0.041 0-0.083 0.002-0.123 0.005l0.005-0-1.086 0.040 0.069 2 1.063-0.034c0.015 0.001 0.033 0.001 0.051 0.001 0.321 0 0.616-0.11 0.849-0.295l-0.003 0.002zM23.223 2.897l-0.206 1.366-0.417-0.063 0.211-1.343-1.183-2.857 0.446 0.069 1.011 2.434 1.714-2.017 0.4 0.086-1.977 2.326zM28.874 2.657l0.497 0.646-0.217 0.171-0.497-0.663-0.314 0.749-0.24-0.103 0.32-0.749-0.823 0.109v-0.274l0.811-0.091-0.503-0.646 0.223-0.171 0.44 0.651 0.309-0.754 0.246 0.103-0.291 0.766 0.823-0.114v0.28l-0.783 0.091zM30.783 7.263c-0.129-0.197-0.217-0.431-0.245-0.684l-0.001-0.007 0.337-0.149c0.026 0.226 0.099 0.445 0.217 0.64 0.128 0.219 0.294 0.413 0.491 0.571 0.197 0.189 0.452 0.318 0.736 0.359l0.007 0.001c0.017 0.002 0.037 0.003 0.057 0.003 0.193 0 0.365-0.087 0.479-0.224l0.001-0.001c0.083-0.091 0.133-0.212 0.133-0.345 0-0.015-0.001-0.030-0.002-0.045l0 0.002c-0.021-0.148-0.069-0.281-0.14-0.399l0.003 0.005c-0.121-0.197-0.236-0.363-0.359-0.523l0.010 0.014c-0.141-0.182-0.277-0.388-0.398-0.603l-0.013-0.026c-0.089-0.154-0.144-0.339-0.149-0.536l-0-0.001c0-0.211 0.079-0.416 0.223-0.571 0.123-0.148 0.283-0.261 0.467-0.324l0.007-0.002c0.095-0.029 0.204-0.045 0.317-0.045s0.222 0.016 0.325 0.047l-0.008-0.002c0.28 0.093 0.522 0.234 0.728 0.414l-0.002-0.002c0.176 0.146 0.331 0.315 0.463 0.503 0.122 0.174 0.213 0.367 0.269 0.571l-0.326 0.171c-0.062-0.205-0.148-0.383-0.256-0.544l0.005 0.007c-0.111-0.15-0.238-0.279-0.379-0.391l-0.004-0.003c-0.194-0.188-0.448-0.314-0.731-0.348l-0.006-0.001c-0.015-0.001-0.033-0.002-0.051-0.002-0.197 0-0.372 0.092-0.485 0.235l-0.001 0.001c-0.083 0.088-0.134 0.207-0.134 0.337 0 0.018 0.001 0.036 0.003 0.053l-0-0.002c0.014 0.144 0.061 0.283 0.137 0.406 0.080 0.131 0.194 0.303 0.349 0.509 0.153 0.194 0.291 0.401 0.411 0.617 0.091 0.154 0.148 0.338 0.154 0.535l0 0.002c0.001 0.211-0.079 0.416-0.223 0.571-0.123 0.15-0.286 0.263-0.473 0.324l-0.007 0.002c-0.095 0.030-0.204 0.047-0.317 0.047s-0.222-0.017-0.325-0.049l0.008 0.002c-0.282-0.093-0.526-0.233-0.734-0.414l0.003 0.002c-0.228-0.199-0.418-0.433-0.565-0.695l-0.007-0.013zM36.531 8.097l-0.806-1.143 0.297-0.211 1.857 2.651-0.297 0.211-0.806-1.143-2.983 2.086-0.24-0.349 2.977-2.103zM35.251 12.794c0.108-0.357 0.306-0.659 0.569-0.89l0.002-0.002c0.256-0.23 0.573-0.396 0.924-0.472l0.013-0.002c0.139-0.033 0.299-0.052 0.463-0.052 0.218 0 0.429 0.034 0.626 0.096l-0.015-0.004c0.348 0.117 0.642 0.314 0.873 0.57l0.002 0.002c0.238 0.272 0.409 0.609 0.483 0.981l0.002 0.014c0.045 0.165 0.071 0.355 0.071 0.551s-0.026 0.386-0.075 0.567l0.004-0.015c-0.111 0.356-0.309 0.657-0.569 0.89l-0.002 0.002c-0.373 0.335-0.87 0.54-1.414 0.54-0.224 0-0.439-0.035-0.641-0.099l0.015 0.004c-0.35-0.111-0.646-0.309-0.872-0.569l-0.002-0.002c-0.237-0.271-0.407-0.606-0.483-0.975l-0.002-0.014c-0.037-0.152-0.059-0.326-0.059-0.506 0-0.219 0.032-0.43 0.091-0.63l-0.004 0.016zM36 14.611c0.191 0.217 0.438 0.377 0.714 0.463 0.148 0.044 0.318 0.070 0.493 0.070 0.446 0 0.854-0.165 1.166-0.438l-0.002 0.002c0.211-0.194 0.367-0.44 0.451-0.714 0.042-0.147 0.066-0.315 0.066-0.489 0-0.456-0.166-0.872-0.44-1.194l0.002 0.003c-0.195-0.213-0.444-0.374-0.726-0.46l-0.012-0.003c-0.132-0.036-0.284-0.057-0.44-0.057s-0.308 0.021-0.452 0.060l0.012-0.003c-0.303 0.060-0.568 0.199-0.778 0.395l0.001-0.001c-0.208 0.191-0.364 0.434-0.448 0.709l-0.003 0.011c-0.037 0.133-0.058 0.285-0.058 0.443s0.021 0.31 0.061 0.455l-0.003-0.012c0.067 0.296 0.205 0.553 0.395 0.761l-0.001-0.001zM34.817 19.429l1.48-0.571c0-0.103 0.034-0.206 0.063-0.314l0.28-1.034-1.211-0.314 0.109-0.406 3.863 1.034-0.389 1.446c-0.092 0.435-0.33 0.803-0.659 1.060l-0.004 0.003c-0.196 0.138-0.441 0.221-0.704 0.221-0.136 0-0.268-0.022-0.39-0.063l0.009 0.003c-0.561-0.125-0.974-0.617-0.977-1.205v-0l-1.577 0.571 0.109-0.429zM36.731 19.589c0.179 0.32 0.515 0.532 0.901 0.532 0.197 0 0.381-0.055 0.538-0.152l-0.004 0.003c0.246-0.199 0.421-0.478 0.484-0.797l0.001-0.009 0.274-1.029-1.937-0.52-0.274 1.029c-0.047 0.134-0.075 0.288-0.075 0.448 0 0.178 0.034 0.348 0.095 0.504l-0.003-0.009zM32.766 23.109l-0.291-0.223 1.714-2.257 3.189 2.417-1.657 2.189-0.291-0.223 1.4-1.846-1.143-0.863-1.251 1.651-0.286-0.217 1.28-1.651-1.183-0.897-1.48 1.92zM31.429 27.663l-0.817 0.046v-0.274l0.817-0.006-0.44-0.68 0.223-0.143 0.434 0.686 0.354-0.766 0.246 0.131-0.389 0.72 0.817-0.046v0.28h-0.829l0.44 0.68-0.223 0.143-0.434-0.686-0.377 0.743-0.24-0.137 0.417-0.691zM24 27.206l0.691 0.383c0.236-0.446 0.642-0.774 1.131-0.9l0.012-0.003c0.161-0.052 0.346-0.082 0.538-0.082 0.058 0 0.116 0.003 0.172 0.008l-0.007-0.001c0.216 0.017 0.411 0.092 0.575 0.208l-0.003-0.002c0.153 0.114 0.265 0.274 0.32 0.457 0.069 0.226 0.057 0.469-0.034 0.686-0.151 0.307-0.342 0.57-0.571 0.794l-0 0c0.189 0.101 0.363 0.226 0.52 0.371 0.108 0.111 0.189 0.246 0.234 0.394 0.015 0.056 0.023 0.121 0.023 0.187 0 0.183-0.065 0.351-0.173 0.483l0.001-0.001c-0.151 0.216-0.374 0.373-0.632 0.438l-0.008 0.002c-0.229 0.087-0.48 0.087-0.709 0-0.204-0.089-0.356-0.266-0.41-0.481l-0.001-0.005c-0.023-0.070-0.036-0.151-0.036-0.235 0-0.122 0.028-0.238 0.078-0.341l-0.002 0.005c0.131-0.26 0.303-0.497 0.509-0.703l-1.377-0.766c-0.032 0.157-0.050 0.337-0.050 0.521 0 0.104 0.006 0.207 0.017 0.308l-0.001-0.012h-0.349c-0.004-0.057-0.007-0.123-0.007-0.19 0-0.287 0.044-0.564 0.126-0.823l-0.005 0.019-0.72-0.4 0.149-0.32zM24.994 27.777l1.514 0.84c0.198-0.19 0.363-0.411 0.486-0.657 0.063-0.166 0.063-0.349 0-0.514-0.054-0.202-0.203-0.361-0.396-0.427l-0.004-0.001c-0.109-0.038-0.235-0.060-0.366-0.060s-0.257 0.022-0.374 0.063l0.008-0.002c-0.398 0.107-0.717 0.378-0.888 0.735l-0.004 0.008 0.023 0.017zM27.143 30.063c0.045-0.075 0.072-0.165 0.072-0.262 0-0.058-0.009-0.113-0.027-0.165l0.001 0.004c-0.037-0.117-0.1-0.217-0.183-0.297l-0-0c-0.138-0.117-0.294-0.222-0.46-0.308l-0.014-0.006c-0.169 0.168-0.319 0.355-0.444 0.559l-0.007 0.013c-0.042 0.078-0.067 0.17-0.067 0.268 0 0.055 0.008 0.108 0.022 0.158l-0.001-0.004c0.038 0.134 0.129 0.242 0.249 0.302l0.003 0.001c0.146 0.055 0.306 0.055 0.451 0 0.159-0.043 0.292-0.139 0.381-0.266l0.001-0.002 0.023 0.006zM17.034 31.611l0.080-4h0.406l-0.063 3.2 1.623-2.663h0.2l1.52 2.709 0.057-3.183h0.406l-0.074 4h-0.349l-1.68-2.989-1.777 2.931-0.349-0.006zM15.046 27.429c0.373 0.356 0.604 0.856 0.604 1.411 0 0.202-0.031 0.397-0.088 0.58l0.004-0.014c-0.1 0.367-0.289 0.682-0.543 0.931l-0 0c-0.246 0.242-0.558 0.419-0.907 0.5l-0.013 0.003c-0.147 0.035-0.315 0.054-0.488 0.054-0.221 0-0.435-0.032-0.636-0.093l0.016 0.004c-0.375-0.093-0.699-0.275-0.961-0.521l0.001 0.001c-0.251-0.24-0.436-0.546-0.528-0.889l-0.003-0.013c-0.039-0.152-0.061-0.326-0.061-0.505 0-0.59 0.242-1.123 0.633-1.506l0-0c0.242-0.242 0.548-0.421 0.889-0.511l0.014-0.003c0.146-0.034 0.313-0.054 0.485-0.054 0.22 0 0.433 0.032 0.633 0.093l-0.016-0.004c0.378 0.098 0.704 0.285 0.966 0.538l-0.001-0.001zM13.097 27.229c-0.291 0.069-0.541 0.213-0.737 0.411l-0 0c-0.205 0.204-0.356 0.461-0.432 0.748l-0.003 0.012c-0.080 0.286-0.080 0.589 0 0.874 0.067 0.278 0.212 0.531 0.417 0.731 0.209 0.204 0.469 0.357 0.759 0.437l0.012 0.003c0.133 0.035 0.286 0.055 0.443 0.055s0.31-0.020 0.455-0.058l-0.012 0.003c0.28-0.069 0.536-0.211 0.743-0.411 0.203-0.204 0.355-0.461 0.432-0.748l0.003-0.012c0.038-0.132 0.060-0.283 0.060-0.44s-0.022-0.308-0.063-0.452l0.003 0.012c-0.078-0.288-0.225-0.535-0.423-0.731l-0-0c-0.21-0.204-0.472-0.356-0.765-0.432l-0.012-0.003c-0.132-0.038-0.283-0.060-0.44-0.060s-0.308 0.022-0.452 0.063l0.012-0.003zM8.771 24.571l0.154 1.571c0.098 0.042 0.193 0.090 0.286 0.143l0.931 0.537 0.629-1.109 0.371 0.211-2 3.446-1.303-0.749c-0.385-0.196-0.685-0.514-0.853-0.903l-0.005-0.012c-0.044-0.123-0.070-0.265-0.070-0.413 0-0.25 0.073-0.482 0.198-0.678l-0.003 0.005c0.133-0.25 0.343-0.451 0.6-0.571 0.15-0.064 0.324-0.101 0.507-0.101 0.112 0 0.221 0.014 0.325 0.040l-0.009-0.002-0.166-1.68 0.406 0.263zM8.12 26.377c-0.411 0.106-0.719 0.449-0.771 0.871l-0 0.005c-0.005 0.036-0.007 0.078-0.007 0.121 0 0.103 0.015 0.202 0.043 0.296l-0.002-0.007c0.134 0.296 0.366 0.536 0.657 0.68l0.92 0.531 1-1.714-0.92-0.531c-0.233-0.176-0.527-0.282-0.846-0.282-0.026 0-0.052 0.001-0.077 0.002l0.004-0v0.029zM5.389 21.891l0.257-0.257 1.971 2.029-2.857 2.789-1.903-1.966 0.263-0.257 1.617 1.663 0.977-0.989-1.417-1.474 0.274-0.263 1.446 1.486 1.063-1.034-1.691-1.726zM1.143 19.646l0.137-0.789 0.269 0.040-0.154 0.811 0.76-0.28 0.091 0.251-0.771 0.263 0.634 0.537-0.183 0.206-0.611-0.571-0.143 0.811-0.274-0.051 0.16-0.811-0.766 0.274-0.086-0.223 0.766-0.269-0.634-0.531 0.189-0.206 0.617 0.537z"></path>
</symbol>
  </defs>
</svg>
