<svg width="20" height="20" viewBox="0 0 20 20" fill="none" xmlns="http://www.w3.org/2000/svg">
<g clip-path="url(#clip0_1374_233)">
<path d="M19.9804 6.16042C19.9336 5.19051 19.7617 4.52371 19.5156 3.94592C19.2616 3.33261 18.8709 2.78351 18.359 2.32705C17.8589 1.86348 17.2533 1.50326 16.5891 1.2751C15.9524 1.05042 15.2256 0.893575 14.163 0.850812C13.0924 0.804427 12.7525 0.793701 10.0371 0.793701C7.32173 0.793701 6.98185 0.804427 5.91521 0.84719C4.85253 0.889953 4.12195 1.04694 3.48904 1.27148C2.81692 1.50326 2.2153 1.85986 1.71517 2.32705C1.20726 2.78351 0.812743 3.33623 0.562603 3.94244C0.31643 4.52371 0.144583 5.18689 0.0977294 6.1568C0.0469078 7.13394 0.0351562 7.44415 0.0351562 9.92247C0.0351562 12.4008 0.0469078 12.711 0.0937614 13.6845C0.140615 14.6544 0.312615 15.3212 0.558787 15.899C0.812743 16.5123 1.20726 17.0614 1.71517 17.5179C2.2153 17.9815 2.82088 18.3417 3.48508 18.5698C4.12195 18.7945 4.84856 18.9514 5.91139 18.9941C6.97788 19.037 7.31791 19.0476 10.0333 19.0476C12.7487 19.0476 13.0885 19.037 14.1552 18.9941C15.2179 18.9514 15.9484 18.7945 16.5813 18.5698C17.9254 18.0955 18.9881 17.1256 19.5078 15.899C19.7538 15.3177 19.9258 14.6544 19.9727 13.6845C20.0195 12.711 20.0313 12.4008 20.0313 9.92247C20.0313 7.44415 20.0273 7.13394 19.9804 6.16042ZM18.1794 13.6132C18.1364 14.5047 17.9723 14.9861 17.8356 15.307C17.4995 16.1022 16.808 16.7334 15.9367 17.0401C15.5851 17.1649 15.0538 17.3147 14.0809 17.3538C13.026 17.3967 12.7096 17.4073 10.0411 17.4073C7.37255 17.4073 7.05221 17.3967 6.00113 17.3538C5.02438 17.3147 4.49693 17.1649 4.1453 17.0401C3.71171 16.8939 3.31704 16.6621 2.9967 16.359C2.6646 16.063 2.41065 15.7064 2.2504 15.3106C2.11365 14.9897 1.94959 14.5047 1.90671 13.6168C1.8597 12.654 1.8481 12.3651 1.8481 9.92957C1.8481 7.49402 1.8597 7.20164 1.90671 6.24246C1.94959 5.35098 2.11365 4.86958 2.2504 4.54865C2.41065 4.15277 2.6646 3.7927 3.00067 3.50018C3.32483 3.19708 3.71553 2.96529 4.14927 2.81917C4.5009 2.69437 5.03231 2.54463 6.0051 2.50534C7.05999 2.46258 7.37652 2.45186 10.0449 2.45186C12.7174 2.45186 13.0337 2.46258 14.0848 2.50534C15.0616 2.54463 15.589 2.69437 15.9407 2.81917C16.3742 2.96529 16.7689 3.19708 17.0893 3.50018C17.4213 3.79618 17.6753 4.15277 17.8356 4.54865C17.9723 4.86958 18.1364 5.35446 18.1794 6.24246C18.2263 7.20526 18.238 7.49402 18.238 9.92957C18.238 12.3651 18.2263 12.6504 18.1794 13.6132Z" fill="#FF6C00"/>
<path d="M10.0371 5.23328C7.20074 5.23328 4.89941 7.33355 4.89941 9.92247C4.89941 12.5114 7.20074 14.6117 10.0371 14.6117C12.8737 14.6117 15.1749 12.5114 15.1749 9.92247C15.1749 7.33355 12.8737 5.23328 10.0371 5.23328ZM10.0371 12.9642C8.19702 12.9642 6.70442 11.6021 6.70442 9.92247C6.70442 8.24286 8.19702 6.88071 10.0371 6.88071C11.8774 6.88071 13.3698 8.24286 13.3698 9.92247C13.3698 11.6021 11.8774 12.9642 10.0371 12.9642Z" fill="#FF6C00"/>
<path d="M16.5777 5.04784C16.5777 5.65238 16.0407 6.14255 15.3781 6.14255C14.7158 6.14255 14.1787 5.65238 14.1787 5.04784C14.1787 4.44316 14.7158 3.95312 15.3781 3.95312C16.0407 3.95312 16.5777 4.44316 16.5777 5.04784Z" fill="#FF6C00"/>
</g>
<defs>
<clipPath id="clip0_1374_233">
<rect width="20" height="18.254" fill="white" transform="translate(0 0.793701)"/>
</clipPath>
</defs>
</svg>
