<svg width="20" height="20" viewBox="0 0 20 20" fill="none" xmlns="http://www.w3.org/2000/svg">
<g clip-path="url(#clip0_1374_217)">
<path d="M19.9951 19.0478V19.047H20.0001V12.3524C20.0001 9.07729 19.2276 6.55444 15.0326 6.55444C13.0159 6.55444 11.6626 7.5645 11.1101 8.52207H11.0517V6.8602H7.07422V19.047H11.2159V13.0125C11.2159 11.4237 11.5459 9.88731 13.7017 9.88731C15.8259 9.88731 15.8576 11.7005 15.8576 13.1145V19.0478H19.9951Z" fill="#303030"/>
<path d="M0.330078 6.86084H4.47675V19.0476H0.330078V6.86084Z" fill="#303030"/>
<path d="M2.40167 0.793701C1.07583 0.793701 0 1.77561 0 2.9857C0 4.19578 1.07583 5.19823 2.40167 5.19823C3.7275 5.19823 4.80333 4.19578 4.80333 2.9857C4.8025 1.77561 3.72667 0.793701 2.40167 0.793701V0.793701Z" fill="#303030"/>
</g>
<defs>
<clipPath id="clip0_1374_217">
<rect width="20" height="18.254" fill="white" transform="translate(0 0.793701)"/>
</clipPath>
</defs>
</svg>
