<svg width="20" height="20" viewBox="0 0 20 20" fill="none" xmlns="http://www.w3.org/2000/svg">
<g clip-path="url(#clip0_1374_227)">
<path d="M20 4.26081C19.2563 4.55858 18.4637 4.75595 17.6375 4.85178C18.4875 4.38859 19.1363 3.66071 19.4412 2.78338C18.6488 3.21463 17.7738 3.51924 16.8412 3.68923C16.0887 2.95793 15.0162 2.505 13.8462 2.505C11.5763 2.505 9.74875 4.18665 9.74875 6.24821C9.74875 6.54484 9.77625 6.83005 9.84375 7.10158C6.435 6.94985 3.41875 5.45872 1.3925 3.18725C1.03875 3.74742 0.83125 4.38859 0.83125 5.07881C0.83125 6.37485 1.5625 7.52371 2.6525 8.18883C1.99375 8.17742 1.3475 8.00287 0.8 7.72792C0.8 7.73933 0.8 7.75416 0.8 7.76899C0.8 9.58754 2.22125 11.0981 4.085 11.446C3.75125 11.5293 3.3875 11.5692 3.01 11.5692C2.7475 11.5692 2.4825 11.5555 2.23375 11.5054C2.765 12.9873 4.2725 14.0769 6.065 14.1122C4.67 15.1082 2.89875 15.7083 0.98125 15.7083C0.645 15.7083 0.3225 15.6946 0 15.657C1.81625 16.726 3.96875 17.3364 6.29 17.3364C13.835 17.3364 17.96 11.632 17.96 6.68745C17.96 6.52202 17.9538 6.3623 17.945 6.20372C18.7588 5.67663 19.4425 5.01835 20 4.26081Z" fill="#303030"/>
</g>
<defs>
<clipPath id="clip0_1374_227">
<rect width="20" height="18.254" fill="white" transform="translate(0 0.793701)"/>
</clipPath>
</defs>
</svg>
